<svg width="56" height="56" viewBox="0 0 56 56" fill="none" xmlns="http://www.w3.org/2000/svg">
<path d="M0 0H56V56H0V0Z" fill="white"/>
<path d="M26.3452 16.2706C26.1827 15.675 25.6954 15.2418 25.136 15.1426H22.8078L19.9201 19.9433L17.0234 15.1426H14.7042C14.1357 15.2418 13.6484 15.684 13.495 16.2706L9.05519 32.595C8.82959 33.4162 9.31689 34.2554 10.129 34.472C10.2644 34.5081 10.3998 34.5261 10.5351 34.5261C11.2119 34.5261 11.8256 34.0749 12.0151 33.3981L14.7042 23.4988V47.277C14.7042 48.6036 15.7781 49.6865 17.1136 49.6865C18.4401 49.6865 19.523 48.6126 19.523 47.277V32.7033C19.523 32.5409 19.6584 32.4055 19.8208 32.4055C19.8569 32.4055 19.893 32.4145 19.9291 32.4235C19.9652 32.4145 19.9923 32.4055 20.0374 32.4055C20.1998 32.4055 20.3352 32.5409 20.3352 32.7033V47.268C20.3352 48.5946 21.409 49.6774 22.7446 49.6774C24.0711 49.6774 25.154 48.6036 25.154 47.268V23.4898L27.8432 33.3891C28.0327 34.0749 28.6463 34.5171 29.3231 34.5171C29.4585 34.5171 29.5938 34.4991 29.7292 34.463C30.5504 34.2374 31.0286 33.3981 30.803 32.586L26.3452 16.2706Z" fill="#01579B"/>
<path d="M19.92 14.2227C22.2572 14.1235 24.1252 12.2014 24.1252 9.83707C24.1252 7.47278 22.2572 5.54165 19.92 5.44238C17.5828 5.54165 15.7148 7.46376 15.7148 9.82805C15.7148 12.1923 17.5828 14.1235 19.92 14.2227Z" fill="#01579B"/>
<path d="M35.4956 50.12H40.7566V5H35.4956V50.12ZM39.8722 5.88435V27.56H36.38V5.88435H39.8722Z" fill="#4DD0E1"/>
<path d="M47.0824 24.3564L41.7312 27.56L47.0824 30.7635L45.4401 27.56L47.0824 24.3564Z" fill="#4DD0E1"/>
</svg>
