<svg width="56" height="56" viewBox="0 0 56 56" fill="none" xmlns="http://www.w3.org/2000/svg">
<path d="M0 0H56V56H0V0Z" fill="white"/>
<path d="M11.9774 10.0831C11.8216 9.8289 11.8052 9.50919 11.9529 9.24673C12.1005 8.98437 12.371 8.82852 12.6744 8.82852L42.1452 8.82031C42.4405 8.82031 42.7194 8.97616 42.8587 9.23852C43.0062 9.50098 42.998 9.82079 42.8341 10.0749C41.1941 12.658 40.3823 15.0524 40.0051 17.1434H15.8808C15.487 17.1434 15.1098 17.2335 14.7819 17.3976C14.3473 14.872 13.4124 12.3792 11.9774 10.0831Z" fill="#01579B"/>
<path d="M43.9165 33.5106C32.7563 35.6671 21.637 35.6753 10.7065 33.5435C10.7638 33.4696 10.813 33.3958 10.8705 33.322C12.371 31.3703 13.4863 29.1892 14.1833 26.9014C14.5851 27.172 15.0608 27.3196 15.5445 27.3196H40.6365C41.3416 29.4844 42.4077 31.5262 43.7852 33.3302C43.8262 33.3876 43.8755 33.445 43.9165 33.5106Z" fill="#01579B"/>
<path d="M45.4579 41.5221C45.4579 43.3178 45.3514 45.3104 45.1382 47.4342C45.0971 47.8607 44.7446 48.1804 44.3264 48.1804H28.115V44.0148C28.115 43.5639 27.7458 43.1948 27.295 43.1948C26.8357 43.1948 26.475 43.5639 26.475 44.0148V48.1804H10.2307C9.8125 48.1804 9.44354 47.8524 9.4025 47.426C9.22213 45.4089 9.13184 43.5064 9.13184 41.8008C9.13184 38.8816 9.4025 36.6594 9.96004 35.0686C15.6428 36.2085 21.3746 36.7742 27.1392 36.7742C32.9529 36.7742 38.7996 36.2003 44.6543 35.0439C45.1956 36.5857 45.4579 38.7258 45.4579 41.5221Z" fill="#01579B"/>
<path d="M45.0481 18.7832H15.8808C15.446 18.7832 15.0852 19.1193 15.0608 19.5457L14.7245 24.8019C14.7081 25.0315 14.7901 25.2529 14.9459 25.4169C15.1016 25.5809 15.3149 25.6793 15.5445 25.6793H19.6321V22.6744C19.6321 22.2212 19.9988 21.8544 20.4521 21.8544C20.9053 21.8544 21.2721 22.2212 21.2721 22.6744V25.6793H24.5521V22.2644C24.5521 21.8112 24.9188 21.4444 25.3721 21.4444C25.8253 21.4444 26.1921 21.8112 26.1921 22.2644V25.6793H29.4721V22.6744C29.4721 22.2212 29.8388 21.8544 30.2921 21.8544C30.7453 21.8544 31.1121 22.2212 31.1121 22.6744V25.6793H34.3921V22.2644C34.3921 21.8112 34.7588 21.4444 35.2121 21.4444C35.6653 21.4444 36.0321 21.8112 36.0321 22.2644V25.6793H39.3121V22.6744C39.3121 22.2212 39.6788 21.8544 40.1321 21.8544C40.5853 21.8544 40.9521 22.2212 40.9521 22.6744V25.6793H45.0481C45.4991 25.6793 45.8681 25.3104 45.8681 24.8593V19.6032C45.8681 19.144 45.4991 18.7832 45.0481 18.7832Z" fill="#4DD0E1"/>
</svg>
