<svg width="56" height="56" viewBox="0 0 56 56" fill="none" xmlns="http://www.w3.org/2000/svg">
<path d="M0 0H56V56H0V0Z" fill="white"/>
<path d="M44.2273 38.8184H11.7727C11.3456 38.8184 11 39.164 11 39.5911V41.9093C11 43.6139 12.3862 45.0002 14.0909 45.0002H41.9091C43.6138 45.0002 45 43.6139 45 41.9093V39.5911C45 39.164 44.6544 38.8184 44.2273 38.8184Z" fill="#4DD0E1"/>
<path d="M41.9091 11H14.0909C12.3862 11 11 12.3862 11 14.0909V36.5C11 36.9271 11.3456 37.2727 11.7727 37.2727H44.2273C44.6544 37.2727 45 36.9271 45 36.5V14.0909C45 12.3862 43.6138 11 41.9091 11ZM28.7727 24.1364V21.0455C28.7727 20.6183 28.4271 20.2727 28 20.2727C27.5729 20.2727 27.2273 20.6183 27.2273 21.0455V24.1364H20.2727C20.2727 23.2448 20.4542 22.4022 20.732 21.6053L21.591 22.1012C21.7125 22.1713 21.8453 22.2045 21.9767 22.2045C22.2438 22.2045 22.5034 22.0657 22.6468 21.8182C22.8603 21.4484 22.7335 20.976 22.3638 20.7625L21.3853 20.1976C21.8609 19.4009 22.473 18.7073 23.1936 18.1298L23.8534 19.2729C23.9968 19.5204 24.2563 19.6592 24.5235 19.6592C24.6548 19.6592 24.7876 19.626 24.9091 19.5558C25.2789 19.3423 25.4056 18.8699 25.1921 18.5001L24.4923 17.2877C25.3291 16.858 26.2479 16.5857 27.2273 16.487V17.9545C27.2273 18.3817 27.5729 18.7273 28 18.7273C28.4271 18.7273 28.7727 18.3817 28.7727 17.9545V16.487C29.7521 16.5857 30.6709 16.858 31.5077 17.2877L30.8079 18.5001C30.5944 18.8699 30.7211 19.3423 31.0909 19.5558C31.2124 19.626 31.3452 19.6592 31.4765 19.6592C31.7437 19.6592 32.0032 19.5204 32.1466 19.2729L32.8064 18.1298C33.527 18.7073 34.1391 19.4009 34.6147 20.1976L33.6362 20.7625C33.2665 20.976 33.1397 21.4484 33.3532 21.8182C33.4966 22.0657 33.7562 22.2045 34.0233 22.2045C34.1547 22.2045 34.2875 22.1713 34.409 22.1012L35.268 21.6053C35.5458 22.4022 35.7273 23.2448 35.7273 24.1364H28.7727Z" fill="#01579B"/>
</svg>
